<svg id="logoWebsite" xmlns="http://www.w3.org/2000/svg" xmlns:xlink="http://www.w3.org/1999/xlink" viewBox="0 0 1800 450">
    <g id="all">
    <defs>
    <style>
      .cls-1 {
        fill: #d2d2d1;
      }

      .cls-2 {
        fill: #231f20;
      }

      .cls-3 {
        fill: #95ce95;
      }

      .cls-4 {
        fill: #933694;
      }

      .cls-5 {
        fill: url(#radial-gradient);
      }

      .cls-6 {
        fill: #66256b;
      }

      .cls-7 {
        fill: #45194f;
      }

      .cls-8 {
        fill: #582160;
      }

      .cls-9 {
        fill: #7c297f;
      }

      .cls-10 {
        fill: #a44b9c;
      }

      .cls-11 {
        fill: #ae5ea5;
      }

      .cls-12 {
        fill: #d199c5;
      }

      .cls-13 {
        fill: #d28dbd;
      }

      .cls-14 {
        fill: #7fc88f;
      }
    </style>
    <radialGradient id="radial-gradient" cx="1048.779" cy="238.749" r="135.391" gradientTransform="translate(10.488 2.388) scale(0.99 0.99)" gradientUnits="userSpaceOnUse">
      <stop offset="0" stop-color="#95ce95"/>
      <stop offset="0.311" stop-color="#95ce95"/>
      <stop offset="0.637" stop-color="#7fc88f"/>
      <stop offset="0.97" stop-color="#7fc88f"/>
      <stop offset="1" stop-color="#7fc88f"/>
    </radialGradient>
  </defs>
      <g id="text">
        <g id="exe">
          <path id="exeDot" class="cls-1" d="M77.2,324.876a9,9,0,0,1,8.9-8.9,8.034,8.034,0,0,1,6.1,2.636,8.855,8.855,0,0,1,2.472,6.262,8.443,8.443,0,0,1-8.569,8.569,8.837,8.837,0,0,1-6.262-2.472A8.01,8.01,0,0,1,77.2,324.876Z"/>
          <g id="exeLetters">
            <path id="exeE2" class="cls-2" d="M551.465,250.72q-26.7,10.876-53.393,21.423t-53.393,21.423a53.4,53.4,0,0,0,19.61,23.9q13.348,9.069,30.816,9.063a53.8,53.8,0,0,0,20.764-3.955,58.316,58.316,0,0,0,17.139-10.876q1.313,1.653,2.636,3.3a38.11,38.11,0,0,0,2.966,3.3A63.188,63.188,0,0,1,519,331.138a61.388,61.388,0,0,1-23.895,4.614,62.324,62.324,0,0,1-25.213-5.108A64.145,64.145,0,0,1,435.946,296.7a64.369,64.369,0,0,1,0-50.262,63.7,63.7,0,0,1,33.947-34.112,62.324,62.324,0,0,1,25.213-5.108,53.527,53.527,0,0,1,34.771,12.194A68.081,68.081,0,0,1,551.465,250.72Zm-56.359-34.277a52.6,52.6,0,0,0-24.719,5.85,56.7,56.7,0,0,0-18.621,15.269,55.775,55.775,0,0,0-10.382,21.763,50.76,50.76,0,0,0,.33,25.012q24.719-9.887,48.943-19.61t48.943-19.61a52.832,52.832,0,0,0-17.962-20.708A46.056,46.056,0,0,0,495.106,216.443Z"/>
            <path id="exeX" class="cls-2" d="M267.367,209.851H328.01v9.228H303.292l33.947,46.472,33.618-46.472H348.774v-9.228h59v9.228H382.062l-39.221,54.052q9.556,12.776,18.951,25.378t18.951,25.708H407.77v9.229H347.126v-9.229h22.412q-8.574-11.78-16.809-23.071T335.921,278.4q-8.574,11.455-16.479,22.906t-16.479,22.906h23.4v9.229h-59v-9.229h24.06q9.888-13.425,19.445-26.531t19.116-26.861q-9.563-13.1-19.116-25.873t-19.116-25.873H267.367Z"/>
            <path id="exeE1" class="cls-2" d="M243.641,250.72q-26.7,10.876-53.393,21.423t-53.393,21.423a53.4,53.4,0,0,0,19.61,23.9q13.348,9.069,30.816,9.063a53.8,53.8,0,0,0,20.764-3.955,58.316,58.316,0,0,0,17.139-10.876q1.313,1.653,2.636,3.3a38.11,38.11,0,0,0,2.966,3.3,63.188,63.188,0,0,1-19.61,12.854,61.388,61.388,0,0,1-23.895,4.614,62.324,62.324,0,0,1-25.213-5.108A64.145,64.145,0,0,1,128.121,296.7a64.369,64.369,0,0,1,0-50.262,63.7,63.7,0,0,1,33.947-34.112,62.324,62.324,0,0,1,25.213-5.108,53.527,53.527,0,0,1,34.771,12.194A68.081,68.081,0,0,1,243.641,250.72Zm-56.359-34.277a52.6,52.6,0,0,0-24.719,5.85,56.7,56.7,0,0,0-18.621,15.269,55.775,55.775,0,0,0-10.382,21.763,50.76,50.76,0,0,0,.33,25.012q24.719-9.887,48.943-19.61t48.943-19.61a52.832,52.832,0,0,0-17.962-20.708A46.056,46.056,0,0,0,187.282,216.443Z"/>
          </g>
        </g>
        <path id="m" class="cls-3" d="M759.429,324.217h26.037V245.271a30.3,30.3,0,0,0-8.374-19.651q-7.717-8.188-21.5-8.847a57.66,57.66,0,0,0-36.44,12.776,48.259,48.259,0,0,0-11.819,14.25,39.912,39.912,0,0,0-4.923,18.179v62.24h25.708v9.229H667.145v-9.229h26.037V245.271a30.3,30.3,0,0,0-8.374-19.651q-7.717-8.188-21.5-8.847a59.921,59.921,0,0,0-20.192,3.44,54.566,54.566,0,0,0-17.071,9.666,45.562,45.562,0,0,0-11.654,14.9,42.139,42.139,0,0,0-4.264,18.833v60.6h25.708v9.229H575.191v-9.229H600.9V219.079h-24.06v-9.228H607.82l.659,14.5q0,4.944.33,8.9t.33,8.9a54.262,54.262,0,0,1,21.093-25.213q14.5-9.393,33.288-9.393,16.477,0,26.7,9.063t11.865,23.9a58.5,58.5,0,0,1,53.532-32.958q17.736,0,28.077,10.191t11,26.619v79.862h25.378v9.229H759.429Z"/>
        <g id="plumLetters">
          <path id="plumM" class="cls-4" d="M1554.711,324.217h26.037V245.271a30.294,30.294,0,0,0-8.374-19.651q-7.717-8.188-21.5-8.847a57.66,57.66,0,0,0-36.439,12.776,48.253,48.253,0,0,0-11.819,14.25,39.924,39.924,0,0,0-4.923,18.179v62.24H1523.4v9.229h-60.974v-9.229h26.037V245.271a30.3,30.3,0,0,0-8.373-19.651q-7.717-8.188-21.5-8.847a59.919,59.919,0,0,0-20.192,3.44,54.566,54.566,0,0,0-17.071,9.666,45.556,45.556,0,0,0-11.654,14.9,42.139,42.139,0,0,0-4.264,18.833v60.6h25.707v9.229h-60.644v-9.229h25.708V219.079h-24.06v-9.228h30.98l.659,14.5q0,4.944.33,8.9t.329,8.9a54.26,54.26,0,0,1,21.094-25.213q14.5-9.393,33.288-9.393,16.477,0,26.7,9.063t11.865,23.9a58.5,58.5,0,0,1,53.531-32.958q17.736,0,28.077,10.191t11,26.619v79.862h25.378v9.229h-60.644Z"/>
          <path id="plumU" class="cls-4" d="M1196.452,209.851h34.276v88.082a30.427,30.427,0,0,0,8.368,19.718q7.717,8.219,21.506,8.873a59.765,59.765,0,0,0,20.187-3.44,54.465,54.465,0,0,0,17.072-9.661,45.556,45.556,0,0,0,11.653-14.9,42.148,42.148,0,0,0,4.27-18.838v-60.6h-25.378v-9.228h34.606V325.206H1347.4v8.24h-31.63l-.664-17.468-.335-14.832a53.938,53.938,0,0,1-21.181,25.213,59.738,59.738,0,0,1-33.01,9.393q-17.736,0-28.082-10.186t-11-26.625V219.079h-25.048Z"/>
          <path id="plumL" class="cls-4" d="M1112.739,324.217h24.06V95.485h-23.73V86.256h32.959v237.96h27.355v9.229h-60.644Z"/>
          <path id="plumP" class="cls-4" d="M939.051,406.613H960.8V219.079H936.414v-9.228h31.64q0,8.574.33,17.138t.659,17.139A57.954,57.954,0,0,1,990.3,218.42a68.038,68.038,0,0,1,16.314-7.91,59.011,59.011,0,0,1,18.786-2.966,62.357,62.357,0,0,1,25.213,5.108,67.515,67.515,0,0,1,20.435,13.678,61.369,61.369,0,0,1,13.678,20.435,66.351,66.351,0,0,1,0,50.262A61.718,61.718,0,0,1,1071.05,317.3a67.329,67.329,0,0,1-20.435,13.678,62.357,62.357,0,0,1-25.213,5.108q-20.108,0-35.1-10.382t-20.929-25.213q0,3.947.33,7.89t.33,7.555v90.682h29.333v9.229H939.051Zm141.392-134.965a54.685,54.685,0,0,0-15.984-38.937,55.032,55.032,0,0,0-39.056-15.938,55.8,55.8,0,0,0-21.753,4.274,55.2,55.2,0,0,0-29.333,72.128,56.514,56.514,0,0,0,11.7,17.581,53.091,53.091,0,0,0,17.633,11.829,55.794,55.794,0,0,0,21.753,4.269,54.638,54.638,0,0,0,21.588-4.269,53.57,53.57,0,0,0,17.468-11.829,56.625,56.625,0,0,0,11.7-17.581A54.263,54.263,0,0,0,1080.443,271.648Z"/>
        </g>
        <g id="brackets">
          <path id="bracketsLeft" class="cls-1" d="M841.824,240.832V229.3a20.454,20.454,0,0,0,13.019-4.779,31.606,31.606,0,0,0,8.075-11.041,50.2,50.2,0,0,0,3.955-14.337,113.674,113.674,0,0,0,.989-14.337V126.466q0-15.155,2.637-23.071t6.756-11.371a16.888,16.888,0,0,1,9.558-3.955q5.438-.494,11.371-.495h14.172V96.8H894.228q-10.219,0-13.678,8.06T877.09,133.3v47.676a129.431,129.431,0,0,1-1.813,23.838A59.956,59.956,0,0,1,870.5,220.1a28.191,28.191,0,0,1-6.921,9.208,49.648,49.648,0,0,1-8.24,5.587,44.87,44.87,0,0,1,8.24,5.757,29.784,29.784,0,0,1,6.921,9.532,63.042,63.042,0,0,1,4.779,15.29,124.5,124.5,0,0,1,1.813,23.344v48.006q0,20.053,3.46,28.113T894.228,373h18.127v9.229H898.183q-6.6,0-12.195-.495a14.082,14.082,0,0,1-9.558-4.944q-3.955-4.449-6.262-14.337t-2.307-28.674V285.326a113.8,113.8,0,0,0-.989-14.337,50.3,50.3,0,0,0-3.955-14.337,31.656,31.656,0,0,0-8.075-11.041A20.481,20.481,0,0,0,841.824,240.832Z"/>
          <path id="bracketsRight" class="cls-1" d="M1722.8,229.3v11.536q-9.888.664-15.161,6.921a39.831,39.831,0,0,0-7.745,14.831,72.331,72.331,0,0,0-2.8,17.468q-.333,8.9-.329,14.831v48.449q0,15.155-2.637,23.235t-6.757,11.536a16.008,16.008,0,0,1-9.558,3.791q-5.439.324-11.371.33h-14.172V373h18.127q10.211,0,13.678-8.054t3.461-28.113V278.961a63.714,63.714,0,0,1,2.307-18.411,50.268,50.268,0,0,1,5.6-12.663,32.242,32.242,0,0,1,7.086-8.054q3.785-2.959,6.757-4.934a49.43,49.43,0,0,1-8.24-5.587,28.19,28.19,0,0,1-6.921-9.208,59.761,59.761,0,0,1-4.779-15.29,129.009,129.009,0,0,1-1.812-23.838V133.3q0-20.377-3.461-28.437t-13.678-8.06h-18.127V87.575h14.172q5.933,0,11.371.33a16.008,16.008,0,0,1,9.558,3.791q4.118,3.461,6.757,11.535t2.637,23.236v48.779q0,5.933.329,15a70.586,70.586,0,0,0,2.8,17.468,41.565,41.565,0,0,0,7.745,14.832Q1712.9,228.967,1722.8,229.3Z"/>
        </g>
      </g>
      <g id="plumGraphic">
        <polygon id="plumFlesh" class="cls-5" points="1048.779 105.742 960.625 137.827 913.719 219.07 930.01 311.456 1001.873 371.756 1095.684 371.756 1167.548 311.456 1183.838 219.07 1136.932 137.827 1048.779 105.742"/>
        <g id="plumSkin">
          <polygon id="Triangle17" class="cls-6" points="1168.748 312.19 1126.335 242.989 1185.202 218.871 1168.748 312.19"/>
          <polygon id="Triangle16" class="cls-7" points="1168.748 312.19 1096.158 373.1 1080.217 302.988 1168.748 312.19"/>
          <polygon id="Triangle15" class="cls-8" points="1080.217 302.988 1168.748 312.19 1126.335 242.989 1080.217 302.988"/>
          <polygon id="Triangle14" class="cls-8" points="1001.399 373.1 1096.158 373.1 1080.217 302.988 1001.399 373.1"/>
          <polygon id="Triangle13" class="cls-9" points="1126.335 242.989 1185.202 218.871 1137.823 136.807 1126.335 242.989"/>
          <polygon id="Triangle12" class="cls-9" points="1080.217 302.988 1126.335 242.989 1071.131 195.479 1080.217 302.988"/>
          <polygon id="Triangle11" class="cls-9" points="997.319 264.527 1001.399 373.1 1080.217 302.988 997.319 264.527"/>
          <polygon id="Triangle10" class="cls-4" points="1071.131 195.479 1126.335 242.989 1137.823 136.807 1071.131 195.479"/>
          <polygon id="Triangle9" class="cls-4" points="997.319 264.527 1080.217 302.988 1071.131 195.479 997.319 264.527"/>
          <polygon id="Triangle8" class="cls-4" points="997.319 264.527 928.81 312.19 1001.399 373.1 997.319 264.527"/>
          <polygon id="Triangle7" class="cls-10" points="1048.779 104.398 1071.131 195.479 1137.823 136.807 1048.779 104.398"/>
          <polygon id="Triangle6" class="cls-10" points="997.319 193.363 997.319 264.527 1071.131 195.479 997.319 193.363"/>
          <polygon id="Triangle5" class="cls-10" points="912.355 218.871 928.81 312.19 997.319 264.527 912.355 218.871"/>
          <polygon id="Triangle4" class="cls-11" points="997.319 193.363 912.355 218.871 997.319 264.527 997.319 193.363"/>
          <polygon id="Triangle3" class="cls-11" points="997.319 193.363 1071.131 195.479 1048.779 104.398 997.319 193.363"/>
          <polygon id="Triangle2" class="cls-12" points="997.319 193.363 1048.779 104.398 959.735 136.807 997.319 193.363"/>
          <polygon id="Triangle1" class="cls-13" points="912.355 218.871 997.319 193.363 959.735 136.807 912.355 218.871"/>
        </g>
        <g id="plumLeaf">
          <polygon id="leaf2" class="cls-3" points="1048.779 87.876 1001.399 81.264 974.052 34.885 1048.779 87.876"/>
          <polygon id="leaf1" class="cls-14" points="1048.779 87.876 1025.94 42.601 974.052 34.885 1048.779 87.876"/>
        </g>
  </g>
</g>
</svg>