<svg xmlns="http://www.w3.org/2000/svg" xmlns:xlink="http://www.w3.org/1999/xlink" viewBox="0 0 500 500">
    <g id='all'>
  <defs>
    <style>
      .cls-1 {
        fill: #7fc88f;
      }

      .cls-2 {
        fill: #66256b;
      }

      .cls-3 {
        fill: #45194f;
      }

      .cls-4 {
        fill: #582160;
      }

      .cls-5 {
        fill: #7c297f;
      }

      .cls-6 {
        fill: #933694;
      }

      .cls-7 {
        fill: #a44b9c;
      }

      .cls-8 {
        fill: #ae5ea5;
      }

      .cls-9 {
        fill: #d199c5;
      }

      .cls-10 {
        fill: #d28dbd;
      }

      .cls-11 {
        fill: #95ce95;
      }

      .cls-12 {
        fill: #7fc88f;
      }

      .cls-13 {
        fill: #d2d2d1;
      }
    </style>
  </defs>
  <title>exemplumLogo</title>
  <g id="logoSquare">
    <g id="plumGraphic">
      <!--<polygon id="plumFlesh" class="cls-1" points="250 130.713 168.557 160.356 125.222 235.414 140.272 320.767 206.665 376.478 293.335 376.478 359.728 320.767 374.778 235.414 331.443 160.356 250 130.713"/>-->
      <g id="plumSkin">
        <polygon id="Triangle17" class="cls-2" points="360.836 321.446 321.652 257.512 376.038 235.231 360.836 321.446"/>
        <polygon id="Triangle16" class="cls-3" points="360.836 321.446 293.773 377.719 279.045 312.944 360.836 321.446"/>
        <polygon id="Triangle15" class="cls-4" points="279.045 312.944 360.836 321.446 321.652 257.512 279.045 312.944"/>
        <polygon id="Triangle14" class="cls-4" points="206.227 377.719 293.773 377.719 279.045 312.944 206.227 377.719"/>
        <polygon id="Triangle13" class="cls-5" points="321.652 257.512 376.038 235.231 332.266 159.414 321.652 257.512"/>
        <polygon id="Triangle12" class="cls-5" points="279.045 312.944 321.652 257.512 270.651 213.619 279.045 312.944"/>
        <polygon id="Triangle11" class="cls-5" points="202.457 277.411 206.227 377.719 279.045 312.944 202.457 277.411"/>
        <polygon id="Triangle10" class="cls-6" points="270.651 213.619 321.652 257.512 332.266 159.414 270.651 213.619"/>
        <polygon id="Triangle9" class="cls-6" points="202.457 277.411 279.045 312.944 270.651 213.619 202.457 277.411"/>
        <polygon id="Triangle8" class="cls-6" points="202.457 277.411 139.164 321.446 206.227 377.719 202.457 277.411"/>
        <polygon id="Triangle7" class="cls-7" points="250 129.472 270.651 213.619 332.266 159.414 250 129.472"/>
        <polygon id="Triangle6" class="cls-7" points="202.457 211.665 202.457 277.411 270.651 213.619 202.457 211.665"/>
        <polygon id="Triangle5" class="cls-7" points="123.962 235.231 139.164 321.446 202.457 277.411 123.962 235.231"/>
        <polygon id="Triangle4" class="cls-8" points="202.457 211.665 123.962 235.231 202.457 277.411 202.457 211.665"/>
        <polygon id="Triangle3" class="cls-8" points="202.457 211.665 270.651 213.619 250 129.472 202.457 211.665"/>
        <polygon id="Triangle2" class="cls-9" points="202.457 211.665 250 129.472 167.734 159.414 202.457 211.665"/>
        <polygon id="Triangle1" class="cls-10" points="123.962 235.231 202.457 211.665 167.734 159.414 123.962 235.231"/>
      </g>
      <g id="plumLeaf">
        <polygon id="leaf2" class="cls-11" points="250 114.208 206.227 108.1 180.962 65.251 250 114.208"/>
        <polygon id="leaf1" class="cls-12" points="250 114.208 228.9 72.38 180.962 65.251 250 114.208"/>
      </g>
      <g id="brackets">
        <path id="bracketsLeft" class="cls-13" d="M58.8,255.481V244.824a18.9,18.9,0,0,0,12.028-4.415,29.2,29.2,0,0,0,7.46-10.2,46.382,46.382,0,0,0,3.654-13.246,105.02,105.02,0,0,0,.913-13.246v-53.9q0-14,2.436-21.315T91.533,118a15.6,15.6,0,0,1,8.83-3.654q5.024-.457,10.505-.457h13.093v8.526H107.214q-9.442,0-12.637,7.446t-3.2,26.272v44.047a119.578,119.578,0,0,1-1.675,22.024,55.392,55.392,0,0,1-4.415,14.126,26.045,26.045,0,0,1-6.394,8.507A45.869,45.869,0,0,1,71.284,250a41.454,41.454,0,0,1,7.612,5.319,27.516,27.516,0,0,1,6.394,8.807,58.243,58.243,0,0,1,4.415,14.126,115.021,115.021,0,0,1,1.675,21.567V344.17q0,18.526,3.2,25.973t12.637,7.441h16.747v8.526H110.868q-6.095,0-11.266-.457a13.01,13.01,0,0,1-8.83-4.567q-3.654-4.111-5.785-13.246t-2.131-26.491V296.588a105.138,105.138,0,0,0-.913-13.246A46.468,46.468,0,0,0,78.287,270.1a29.246,29.246,0,0,0-7.46-10.2A18.922,18.922,0,0,0,58.8,255.481Z"/>
        <path id="bracketsRight" class="cls-13" d="M441.2,244.824v10.657q-9.135.614-14.007,6.394a36.8,36.8,0,0,0-7.156,13.7,66.825,66.825,0,0,0-2.588,16.138q-.307,8.221-.3,13.7v44.761q0,14-2.436,21.467T408.467,382.3a14.79,14.79,0,0,1-8.83,3.5q-5.025.3-10.505.3H376.038v-8.526h16.747q9.434,0,12.637-7.441t3.2-25.973V290.707A58.863,58.863,0,0,1,410.75,273.7a46.442,46.442,0,0,1,5.177-11.7,29.787,29.787,0,0,1,6.547-7.441q3.5-2.734,6.242-4.558a45.667,45.667,0,0,1-7.613-5.162,26.044,26.044,0,0,1-6.394-8.507,55.212,55.212,0,0,1-4.415-14.126,119.188,119.188,0,0,1-1.675-22.024V156.135q0-18.826-3.2-26.272t-12.637-7.446H376.038V113.89h13.093q5.481,0,10.505.3a14.79,14.79,0,0,1,8.83,3.5q3.8,3.2,6.242,10.657t2.436,21.467v45.066q0,5.481.3,13.855a65.212,65.212,0,0,0,2.588,16.138,38.4,38.4,0,0,0,7.156,13.7Q432.06,244.519,441.2,244.824Z"/>
      </g>
    </g>
  </g>
        </g>
</svg>
