<svg xmlns="http://www.w3.org/2000/svg" xmlns:xlink="http://www.w3.org/1999/xlink" viewBox="0 0 1000 1000">
    <g id='all'>
  <defs>
    <style>
      .cls-1 {
        fill: url(#radial-gradient);
      }

      .cls-2 {
        fill: #66256b;
      }

      .cls-3 {
        fill: #45194f;
      }

      .cls-4 {
        fill: #582160;
      }

      .cls-5 {
        fill: #7c297f;
      }

      .cls-6 {
        fill: #933694;
      }

      .cls-7 {
        fill: #a44b9c;
      }

      .cls-8 {
        fill: #ae5ea5;
      }

      .cls-9 {
        fill: #d199c5;
      }

      .cls-10 {
        fill: #d28dbd;
      }

      .cls-11 {
        fill: #95ce95;
      }

      .cls-12 {
        fill: #7fc88f;
      }

      .cls-13 {
        fill: #d2d2d1;
      }
    </style>
    <radialGradient id="radial-gradient" cx="500" cy="507.191" r="247.667" gradientUnits="userSpaceOnUse">
      <stop offset="0" stop-color="#95ce95"/>
      <stop offset="0.311" stop-color="#95ce95"/>
      <stop offset="0.637" stop-color="#7fc88f"/>
      <stop offset="0.97" stop-color="#7fc88f"/>
      <stop offset="1" stop-color="#7fc88f"/>
    </radialGradient>
  </defs>
  <title>Square</title>
  <g id="logoSquare">
    <g id="plumGraphic">
        <a href='home.html'>
      <g id="plumSkin">
        <polygon id="Triangle17" class="cls-2" points="721.672 642.892 643.304 515.025 752.077 470.462 721.672 642.892"/>
        <polygon id="Triangle16" class="cls-3" points="721.672 642.892 587.545 755.438 558.089 625.888 721.672 642.892"/>
        <polygon id="Triangle15" class="cls-4" points="558.089 625.888 721.672 642.892 643.304 515.025 558.089 625.888"/>
        <polygon id="Triangle14" class="cls-4" points="412.455 755.438 587.545 755.438 558.089 625.888 412.455 755.438"/>
        <polygon id="Triangle13" class="cls-5" points="643.304 515.025 752.077 470.462 664.531 318.829 643.304 515.025"/>
        <polygon id="Triangle12" class="cls-5" points="558.089 625.888 643.304 515.025 541.302 427.238 558.089 625.888"/>
        <polygon id="Triangle11" class="cls-5" points="404.915 554.822 412.455 755.438 558.089 625.888 404.915 554.822"/>
        <polygon id="Triangle10" class="cls-6" points="541.302 427.238 643.304 515.025 664.531 318.829 541.302 427.238"/>
        <polygon id="Triangle9" class="cls-6" points="404.915 554.822 558.089 625.888 541.302 427.238 404.915 554.822"/>
        <polygon id="Triangle8" class="cls-6" points="404.915 554.822 278.328 642.892 412.455 755.438 404.915 554.822"/>
        <polygon id="Triangle7" class="cls-7" points="500 258.944 541.302 427.238 664.531 318.829 500 258.944"/>
        <polygon id="Triangle6" class="cls-7" points="404.915 423.33 404.915 554.822 541.302 427.238 404.915 423.33"/>
        <polygon id="Triangle5" class="cls-7" points="247.923 470.462 278.328 642.892 404.915 554.822 247.923 470.462"/>
        <polygon id="Triangle4" class="cls-8" points="404.915 423.33 247.923 470.462 404.915 554.822 404.915 423.33"/>
        <polygon id="Triangle3" class="cls-8" points="404.915 423.33 541.302 427.238 500 258.944 404.915 423.33"/>
        <polygon id="Triangle2" class="cls-9" points="404.915 423.33 500 258.944 335.469 318.829 404.915 423.33"/>
        <polygon id="Triangle1" class="cls-10" points="247.923 470.462 404.915 423.33 335.469 318.829 247.923 470.462"/>
      </g>
        </a>
      <g id="plumLeaf">
        <polygon id="leaf2" class="cls-11" points="500 228.416 412.455 216.199 361.924 130.501 500 228.416"/>
        <polygon id="leaf1" class="cls-12" points="500 228.416 457.799 144.759 361.924 130.501 500 228.416"/>
      </g>
      <g id="brackets">
        <path id="bracketsLeft" class="cls-13" d="M117.6,510.962V489.647q14.616-.6,24.055-8.83a58.4,58.4,0,0,0,14.92-20.4,92.764,92.764,0,0,0,7.308-26.491,210.04,210.04,0,0,0,1.827-26.491V299.642q0-28,4.872-42.629T183.065,236a31.205,31.205,0,0,1,17.661-7.308q10.048-.913,21.01-.914h26.187v17.052H214.428q-18.883,0-25.273,14.892t-6.394,52.544v88.094q0,26.734-3.35,44.047t-8.83,28.251Q165.1,483.6,157.792,489.676A91.738,91.738,0,0,1,142.567,500a82.909,82.909,0,0,1,15.225,10.638q7.308,6.381,12.789,17.613,5.481,11.248,8.83,28.251t3.35,43.134v88.7q0,37.053,6.394,51.945,6.394,14.872,25.273,14.882h33.495v17.052H221.736q-12.189,0-22.533-.914a26.019,26.019,0,0,1-17.66-9.135q-7.308-8.221-11.571-26.491T165.709,682.7V593.175a210.276,210.276,0,0,0-1.827-26.491,92.936,92.936,0,0,0-7.308-26.491,58.492,58.492,0,0,0-14.92-20.4Q132.205,511.571,117.6,510.962Z"/>
        <path id="bracketsRight" class="cls-13" d="M882.4,489.647v21.315q-18.27,1.227-28.014,12.789a73.6,73.6,0,0,0-14.311,27.4,133.65,133.65,0,0,0-5.177,32.277q-.614,16.442-.608,27.4v89.522q0,28-4.872,42.933t-12.485,21.315a29.579,29.579,0,0,1-17.66,7q-10.05.6-21.011.609H752.077V755.167h33.494q18.868,0,25.273-14.882,6.4-14.9,6.395-51.945V581.415q0-20.04,4.262-34.018A92.883,92.883,0,0,1,831.855,524a59.575,59.575,0,0,1,13.093-14.882q6.994-5.467,12.485-9.116a91.334,91.334,0,0,1-15.226-10.324q-7.308-6.081-12.788-17.014t-8.831-28.251q-3.354-17.313-3.349-44.047V312.269q0-37.652-6.395-52.544t-25.273-14.892H752.077V227.781h26.186q10.962,0,21.011.609a29.579,29.579,0,0,1,17.66,7q7.608,6.394,12.485,21.314t4.872,42.934v90.131q0,10.962.608,27.709a130.425,130.425,0,0,0,5.177,32.276,76.8,76.8,0,0,0,14.311,27.4Q864.12,489.038,882.4,489.647Z"/>
      </g>
    </g>
  </g>
        </g>
</svg>